Uploader's Note : No Extra Watermark ! Untouched VCD Rip ! Enjoy !



Media Information : ---



Disc 1 : ---


Format                           : CDXA/MPEG-PS
File size                        : 637 MiB
Duration                         : 1h 3mn
Overall bit rate                 : 1 412 Kbps

Video
ID                               : 224 (0xE0)
Format                           : MPEG Video
Format version                   : Version 1
Format settings, BVOP            : Yes
Format settings, Matrix          : Default
Duration                         : 1h 3mn
Bit rate mode                    : Variable
Bit rate                         : 1 150 Kbps
Width                            : 352 pixels
Height                           : 288 pixels
Display aspect ratio             : 4:3
Frame rate                       : 25.000 fps
Standard                         : PAL
Color space                      : YUV
Bit depth                        : 8 bits
Scan type                        : Progressive
Compression mode                 : Lossy
Bits/(Pixel*Frame)               : 0.454
Stream size                      : 523 MiB (82%)

Audio
ID                               : 192 (0xC0)
Format                           : MPEG Audio
Format version                   : Version 1
Format profile                   : Layer 2
Duration                         : 1h 3mn
Bit rate mode                    : Constant
Bit rate                         : 224 Kbps
Channel(s)                       : 2 channels
Sampling rate                    : 44.1 KHz
Compression mode                 : Lossy
Stream size                      : 101 MiB (16%)


Disc 2 : ---


Format                           : CDXA/MPEG-PS
File size                        : 614 MiB
Duration                         : 1h 1mn
Overall bit rate                 : 1 412 Kbps

Video
ID                               : 224 (0xE0)
Format                           : MPEG Video
Format version                   : Version 1
Format settings, BVOP            : Yes
Format settings, Matrix          : Default
Duration                         : 1h 1mn
Bit rate mode                    : Constant
Bit rate                         : 1 150 Kbps
Width                            : 352 pixels
Height                           : 288 pixels
Display aspect ratio             : 4:3
Frame rate                       : 25.000 fps
Standard                         : PAL
Color space                      : YUV
Bit depth                        : 8 bits
Scan type                        : Progressive
Compression mode                 : Lossy
Bits/(Pixel*Frame)               : 0.454
Stream size                      : 505 MiB (82%)

Audio
ID                               : 192 (0xC0)
Format                           : MPEG Audio
Format version                   : Version 1
Format profile                   : Layer 2
Duration                         : 1h 0mn
Bit rate mode                    : Constant
Bit rate                         : 224 Kbps
Channel(s)                       : 2 channels
Sampling rate                    : 44.1 KHz
Compression mode                 : Lossy
Stream size                      : 97.4 MiB (16%)



Screen Links : ---


 
http://www.shotpix.com/images/78285100251045302530.jpg
 
http://www.shotpix.com/images/71320655557387625927.jpg
 
http://www.shotpix.com/images/23318314527006604429.jpg
 
http://www.shotpix.com/images/49868437310074411442.jpg






